# xmcd
# 
# Track frame offsets:
#     150
#     18632
#     37780
#     62114
#     83377
#     102495
#     120888
#     144706
#     166823
#     180175
# 
# Disc length: 2706
# 
# Revision: 2
# Processed by: cddbd v1.5.2PL0 Copyright (c) Steve Scherf et al.
# Submitted via: fre:ac v1.0.31
# 
DISCID=6e0a900a
DTITLE=The Rippingtons - Fountain Of Youth
DYEAR=2014
DGENRE=Jazz
TTITLE0=Spice Route
TTITLE1=Rivers Of Gold
TTITLE2=North Shore
TTITLE3=We Will Live Forever
TTITLE4=The Sun King
TTITLE5=Fountain Of Youth
TTITLE6=Emerald City
TTITLE7=Soul Riders
TTITLE8=Waterfalls Of Bequia
TTITLE9=Garden Of The Gods
EXTD=YEAR: 2014
EXTT0=
EXTT1=
EXTT2=
EXTT3=
EXTT4=
EXTT5=
EXTT6=
EXTT7=
EXTT8=
EXTT9=
PLAYORDER=
